<svg width="19" height="18" viewBox="0 0 19 18" fill="none" xmlns="http://www.w3.org/2000/svg">
<g clip-path="url(#clip0_891_5131)">
<path d="M5.06433 17.9363C3.99386 17.8877 3.41235 17.7095 3.02557 17.5587C2.51308 17.3591 2.1477 17.1216 1.76305 16.7375C1.37841 16.3534 1.14035 15.988 0.941882 15.4755C0.791021 15.0887 0.612878 14.5072 0.564196 13.4367C0.510699 12.2796 0.5 11.9324 0.5 9.0008C0.5 6.06919 0.511769 5.72253 0.563661 4.56433C0.612343 3.49386 0.791556 2.91342 0.941347 2.52557C1.14089 2.01308 1.37895 1.6477 1.76252 1.26252C2.14663 0.878414 2.51201 0.639819 3.02504 0.441347C3.41182 0.290487 3.99333 0.112343 5.06379 0.0636609C6.22146 0.0106993 6.56919 0 9.49973 0C12.4313 0 12.778 0.0117693 13.9362 0.0636609C15.0067 0.112343 15.5871 0.291556 15.975 0.441347C16.4875 0.639819 16.8528 0.878414 17.2375 1.26252C17.6221 1.64663 17.8591 2.01254 18.0587 2.52504C18.2095 2.91182 18.3877 3.49333 18.4363 4.56379C18.4893 5.722 18.5 6.06865 18.5 9.00027C18.5 11.9308 18.4893 12.2785 18.4363 13.4367C18.3877 14.5072 18.2084 15.0887 18.0587 15.4755C17.8591 15.988 17.6216 16.3534 17.2375 16.7375C16.8534 17.1216 16.4875 17.3591 15.975 17.5587C15.5882 17.7095 15.0067 17.8877 13.9362 17.9363C12.7791 17.9893 12.4313 18 9.49973 18C6.56919 18 6.22146 17.9898 5.06433 17.9363Z" fill="url(#paint0_radial_891_5131)"/>
<path d="M5.06433 17.9363C3.99386 17.8877 3.41235 17.7095 3.02557 17.5587C2.51308 17.3591 2.1477 17.1216 1.76305 16.7375C1.37841 16.3534 1.14035 15.988 0.941882 15.4755C0.791021 15.0887 0.612878 14.5072 0.564196 13.4367C0.510699 12.2796 0.5 11.9324 0.5 9.0008C0.5 6.06919 0.511769 5.72253 0.563661 4.56433C0.612343 3.49386 0.791556 2.91342 0.941347 2.52557C1.14089 2.01308 1.37895 1.6477 1.76252 1.26252C2.14663 0.878414 2.51201 0.639819 3.02504 0.441347C3.41182 0.290487 3.99333 0.112343 5.06379 0.0636609C6.22146 0.0106993 6.56919 0 9.49973 0C12.4313 0 12.778 0.0117693 13.9362 0.0636609C15.0067 0.112343 15.5871 0.291556 15.975 0.441347C16.4875 0.639819 16.8528 0.878414 17.2375 1.26252C17.6221 1.64663 17.8591 2.01254 18.0587 2.52504C18.2095 2.91182 18.3877 3.49333 18.4363 4.56379C18.4893 5.722 18.5 6.06865 18.5 9.00027C18.5 11.9308 18.4893 12.2785 18.4363 13.4367C18.3877 14.5072 18.2084 15.0887 18.0587 15.4755C17.8591 15.988 17.6216 16.3534 17.2375 16.7375C16.8534 17.1216 16.4875 17.3591 15.975 17.5587C15.5882 17.7095 15.0067 17.8877 13.9362 17.9363C12.7791 17.9893 12.4313 18 9.49973 18C6.56919 18 6.22146 17.9898 5.06433 17.9363Z" fill="url(#paint1_radial_891_5131)"/>
<path d="M7.28995 9.03839C7.28995 7.80738 8.28761 6.80919 9.51862 6.80919C10.7496 6.80919 11.7478 7.80738 11.7478 9.03839C11.7478 10.2694 10.7496 11.2676 9.51862 11.2676C8.28761 11.2676 7.28995 10.2694 7.28995 9.03839ZM6.08488 9.03839C6.08488 10.9348 7.62216 12.4721 9.51862 12.4721C11.4151 12.4721 12.9523 10.9348 12.9523 9.03839C12.9523 7.14194 11.4151 5.60466 9.51862 5.60466C7.62216 5.60466 6.08494 7.14183 6.08494 9.03839H6.08488ZM12.2859 5.46851C12.2858 5.62722 12.3328 5.78238 12.4209 5.91438C12.5091 6.04638 12.6344 6.14928 12.781 6.21008C12.9276 6.27087 13.0889 6.28682 13.2446 6.25592C13.4002 6.22502 13.5433 6.14866 13.6555 6.03648C13.7678 5.9243 13.8443 5.78134 13.8753 5.6257C13.9063 5.47005 13.8905 5.3087 13.8298 5.16205C13.7691 5.01539 13.6663 4.89003 13.5344 4.8018C13.4025 4.71357 13.2474 4.66645 13.0887 4.66638H13.0883C12.8756 4.66648 12.6716 4.75101 12.5211 4.90141C12.3707 5.05181 12.2861 5.25577 12.2859 5.46851ZM6.81704 14.4816C6.16508 14.4519 5.81071 14.3433 5.57522 14.2515C5.26302 14.13 5.04026 13.9852 4.80605 13.7513C4.57184 13.5174 4.42686 13.2949 4.30586 12.9827C4.21406 12.7473 4.10546 12.3928 4.07582 11.7409C4.0434 11.036 4.03693 10.8243 4.03693 9.0385C4.03693 7.25273 4.04394 7.04158 4.07582 6.33612C4.10551 5.68416 4.21491 5.33038 4.30586 5.0943C4.4274 4.7821 4.57216 4.55934 4.80605 4.32513C5.03994 4.09092 5.26248 3.94594 5.57522 3.82494C5.81061 3.73314 6.16508 3.62454 6.81704 3.5949C7.52191 3.56248 7.73365 3.55601 9.51862 3.55601C11.3036 3.55601 11.5155 3.56291 12.221 3.59501C12.873 3.6247 13.2267 3.7341 13.4628 3.82504C13.775 3.94605 13.9978 4.09135 14.232 4.32524C14.4662 4.55912 14.6106 4.7822 14.7322 5.09441C14.824 5.32979 14.9326 5.68426 14.9622 6.33623C14.9946 7.04169 15.0011 7.25284 15.0011 9.03861C15.0011 10.8244 14.9946 11.0355 14.9622 11.741C14.9325 12.3929 14.8234 12.7473 14.7322 12.9828C14.6106 13.295 14.4659 13.5178 14.232 13.7514C13.9981 13.9851 13.775 14.1301 13.4628 14.2516C13.2274 14.3434 12.873 14.452 12.221 14.4817C11.5161 14.5141 11.3044 14.5206 9.51862 14.5206C7.73285 14.5206 7.5217 14.5141 6.81704 14.4817V14.4816ZM6.76167 2.39182C6.04979 2.42423 5.56335 2.53711 5.13853 2.70242C4.69884 2.87312 4.32613 3.10214 3.95395 3.47373C3.58178 3.84532 3.35335 4.21808 3.18264 4.65831C3.01734 5.08339 2.90446 5.56957 2.87204 6.28145C2.83909 6.99445 2.83154 7.2224 2.83154 9.03839C2.83154 10.8544 2.83909 11.0823 2.87204 11.7953C2.90446 12.5073 3.01734 12.9934 3.18264 13.4185C3.35335 13.8582 3.58183 14.2316 3.95395 14.6031C4.32608 14.9745 4.69831 15.2032 5.13853 15.3744C5.56415 15.5397 6.04979 15.6525 6.76167 15.685C7.47505 15.7174 7.70262 15.7255 9.51862 15.7255C11.3346 15.7255 11.5626 15.7179 12.2756 15.685C12.9875 15.6525 13.4736 15.5397 13.8987 15.3744C14.3384 15.2032 14.7111 14.9746 15.0833 14.6031C15.4555 14.2315 15.6834 13.8582 15.8546 13.4185C16.0199 12.9934 16.1333 12.5072 16.1652 11.7953C16.1976 11.0818 16.2052 10.8544 16.2052 9.03839C16.2052 7.2224 16.1976 6.99445 16.1652 6.28145C16.1328 5.56951 16.0199 5.08312 15.8546 4.65831C15.6834 4.21862 15.4549 3.84591 15.0833 3.47373C14.7117 3.10155 14.3384 2.87312 13.8992 2.70242C13.4736 2.53711 12.9874 2.4237 12.2761 2.39182C11.563 2.35924 11.3351 2.35132 9.51942 2.35132C7.70369 2.35132 7.47531 2.35886 6.76194 2.39182" fill="white"/>
</g>
<defs>
<radialGradient id="paint0_radial_891_5131" cx="0" cy="0" r="1" gradientUnits="userSpaceOnUse" gradientTransform="translate(1.66494 17.6057) scale(22.8533)">
<stop offset="0.09" stop-color="#FA8F21"/>
<stop offset="0.78" stop-color="#D82D7E"/>
</radialGradient>
<radialGradient id="paint1_radial_891_5131" cx="0" cy="0" r="1" gradientUnits="userSpaceOnUse" gradientTransform="translate(12.968 17.0277) scale(20.1111)">
<stop offset="0.64" stop-color="#8C3AAA" stop-opacity="0"/>
<stop offset="1" stop-color="#8C3AAA"/>
</radialGradient>
<clipPath id="clip0_891_5131">
<rect width="18" height="18" fill="white" transform="translate(0.5)"/>
</clipPath>
</defs>
</svg>
